<svg xmlns="http://www.w3.org/2000/svg" width="79" height="18" viewBox="0 0 70 16.454">
    <path d="M14.455 6.687c-.794 0-1.43.636-1.43 1.43s.636 1.43 1.43 1.43c.794 0 1.43-.636 1.43-1.43s-.635-1.43-1.43-1.43zM24.374.485h-3.231v12.357h2.613v-9.885h.706c1.06 0 2.613.105 3.619 1.624.423.636.583 1.413.583 2.171 0 .547-.141 1.077-.388 1.571-.848 1.748-2.26 2.048-3.284 2.048h-.53v2.472h.53c1.13 0 3.743-.159 5.367-2.754.618-.988.918-2.154.918-3.319 0-1.289-.318-2.56-1.024-3.637-1.695-2.56-4.185-2.648-5.879-2.648zM15.151.272c-2.331 0-3.484 1.389-4.603 4.29l-2.052 5.775h-2.424c-1.975-.166-3.459-1.675-3.459-3.674 0-2.119 1.66-3.707 3.813-3.707 0 0 1.21.108 1.865-.474.729-.649.913-1.998.913-1.998h-2.778c-3.284 0-4.926 1.941-5.596 3.071-.548.937-.83 2.031-.83 3.109s.282 2.171.83 3.106c.628 1.06 2.11 2.832 4.998 3.05v.035h3.251v-.013h1.14s2.357-6.889 2.897-8.261c.516-1.312 1.299-1.837 2.035-1.837 1.077 0 1.695.741 1.695 2.012v8.085h2.612v-7.925c0-3.037-1.995-4.644-4.307-4.644zM49.507 3.99h2.261v8.58h-2.261zM45.341 7.291c-.794-.371-.956-.507-1.042-.794-.145-.486.58-.809 1.065-.462l.205.146c.465.267.385.251.953.476.685.271 1.357-.029 1.357-.029s-.078-1.098-.815-1.814c-.885-.864-2.288-.824-2.288-.824-1.978 0-2.736 1.165-2.736 2.436 0 1.377.971 1.801 2.082 2.313.513.247 1.413.583 1.413 1.165 0 .477-.438.879-1.093.687-.607 0-.806-.852-1.897-.674-.703.113-.974.633-.974.633s.169.778.888 1.28c.624.436 1.226.818 2.478.818 1.521-.144 3-.665 3-2.62 0-1.607-1.307-2.137-2.596-2.737zM39.241 4.696c-.864-.698-2.244-.918-2.653-.918-2.542 0-4.501 1.959-4.501 4.502 0 2.542 1.959 4.502 4.501 4.502 1.316 0 2.702-.578 3.604-1.695-.133-.161-.29-.331-.462-.473-.491-.404-1.531-.549-2.08-.23-.117.067-.184.084-.219.069-.238.091-.493.14-.755.14-.685 0-1.475-.338-1.937-1.01l5.98-1.391h.043c0-.222 0-.623-.074-1.038-.161-.906-.566-1.747-1.447-2.458zm-4.892 3.62l-.002-.054c0-1.289.883-2.295 1.995-2.295l.055.005.028-.023s1.119-.202 1.766.682c.163.224.266.465.329.689l-4.171.996zM68.306 4.237c-.565-.318-1.219-.459-1.854-.459s-1.288.141-1.854.459c-1.677.953-1.694 2.418-1.694 3.778v4.555h2.26v-4.873c0-.6.105-1.73 1.288-1.73s1.289 1.13 1.289 1.73v4.873h2.259v-4.555c0-1.36-.018-2.825-1.694-3.778zM50.638 0c-.795 0-1.431.636-1.431 1.43 0 .794.636 1.43 1.431 1.43.794 0 1.43-.636 1.43-1.43-.001-.794-.636-1.43-1.43-1.43zM57.23 3.778c-3.019 0-4.23 2.418-4.23 4.466 0 1.695.721 3.072 2.063 3.814.617.335 1.18.512 1.868.512.494 0 1.076-.124 1.678-.583 0 0 .262-1.606-1.502-1.606-.354 0-.561-.07-.879-.229-.636-.317-.968-1.006-.968-1.942 0-1.412.788-2.242 1.918-2.242.724 0 1.235.283 1.605.742.53.671.53 1.412.53 2.118v2.701c0 .795.019 1.571-.688 2.189-.601.512-1.447.547-1.924.547-.548 0-1.064-.1-2.025-.285l-.549 2.016c.406.141 1.25.459 2.769.459.829 0 2.188-.089 3.248-.937 1.412-1.13 1.43-2.612 1.43-3.919v-2.63c0-1.307-.07-2.684-1.147-3.866-.531-.584-1.537-1.325-3.197-1.325z" />
</svg>